<svg height="448pt" viewBox="0 -38 448 448" width="448pt" xmlns="http://www.w3.org/2000/svg"><path d="m108 114h-85c-3.3125 0-6-2.6875-6-6s2.6875-6 6-6h85v-18.816406c0-.8125.042969-1.183594.105469-2.183594h-108.105469v53h108zm0 0"/><path d="m132 54.214844v-36.804688c0-9.179687-8.074219-17.410156-17.628906-17.410156h-97.441406c-9.328126 0-16.929688 8.070312-16.929688 17.410156v51.589844h111.773438c4.082031-7.800781 11.554687-13.265625 20.226562-14.785156zm0 0"/><path d="m81.433594 310.851562c0-8.761718-7.066406-15.863281-15.78125-15.863281s-15.78125 7.101563-15.78125 15.863281c0 8.761719 7.066406 15.863282 15.78125 15.863282s15.78125-7.101563 15.78125-15.863282zm0 0"/><path d="m132 303.019531c-13.910156-2.652343-23.980469-14.804687-24-28.964843v-39.054688h-31c-3.3125 0-6-2.6875-6-6s2.6875-6 6-6h31v-77h-108v213h132zm-121-74.019531c0-3.3125 2.6875-6 6-6h36c3.3125 0 6 2.6875 6 6s-2.6875 6-6 6h-36c-3.3125 0-6-2.6875-6-6zm54.652344 109.714844c-15.398438.046875-27.917969-12.410156-27.945313-27.808594-.03125-15.398438 12.4375-27.90625 27.835938-27.917969 15.398437-.015625 27.890625 12.464844 27.890625 27.863281.003906 15.359376-12.421875 27.824219-27.78125 27.863282zm0 0"/><path d="m430.511719 66h-293.023438c-4.605469-.0625-9.042969 1.714844-12.328125 4.941406-3.285156 3.230469-5.144531 7.636719-5.160156 12.242188v163.816406h328v-163.816406c-.015625-4.605469-1.875-9.011719-5.160156-12.238282-3.285156-3.230468-7.722656-5.007812-12.328125-4.945312zm0 0"/><path d="m120 274.054688c0 9.644531 7.84375 17.945312 17.488281 17.945312h293.023438c9.644531 0 17.488281-8.300781 17.488281-17.945312v-15.054688h-328zm0 0"/><path d="m245 304v55h-33.1875c-3.3125 0-6 2.6875-6 6s2.6875 6 6 6h148.601562c3.3125 0 6-2.6875 6-6s-2.6875-6-6-6h-37.414062v-55zm0 0"/></svg>